<svg xmlns="http://www.w3.org/2000/svg" width="573" height="207" viewBox="0 0 573 207" fill="none"><path d="M213.382 159.111V161.302H205.721V159.111H213.382ZM207.776 155.751H210.506V169.017C210.506 169.547 210.585 169.946 210.743 170.214C210.901 170.475 211.105 170.655 211.355 170.752C211.61 170.844 211.887 170.889 212.186 170.889C212.405 170.889 212.596 170.874 212.761 170.844C212.925 170.813 213.053 170.789 213.144 170.77L213.637 173.026C213.479 173.087 213.254 173.147 212.962 173.208C212.67 173.275 212.304 173.312 211.866 173.318C211.148 173.33 210.478 173.202 209.857 172.934C209.237 172.667 208.734 172.253 208.351 171.693C207.967 171.133 207.776 170.43 207.776 169.584V155.751ZM219.433 164.808V173.135H216.703V154.436H219.396V161.394H219.57C219.899 160.639 220.401 160.039 221.076 159.595C221.752 159.151 222.635 158.928 223.724 158.928C224.686 158.928 225.526 159.126 226.244 159.522C226.968 159.917 227.528 160.508 227.924 161.293C228.326 162.072 228.527 163.046 228.527 164.215V173.135H225.797V164.544C225.797 163.515 225.532 162.717 225.002 162.151C224.473 161.579 223.736 161.293 222.793 161.293C222.148 161.293 221.569 161.43 221.058 161.704C220.553 161.978 220.154 162.38 219.862 162.909C219.576 163.433 219.433 164.066 219.433 164.808ZM238.214 173.418C236.832 173.418 235.642 173.123 234.644 172.533C233.652 171.936 232.885 171.099 232.343 170.022C231.808 168.938 231.54 167.669 231.54 166.214C231.54 164.778 231.808 163.512 232.343 162.416C232.885 161.321 233.64 160.465 234.608 159.851C235.582 159.236 236.72 158.928 238.022 158.928C238.814 158.928 239.581 159.059 240.323 159.321C241.066 159.583 241.732 159.994 242.323 160.554C242.913 161.114 243.379 161.841 243.72 162.736C244.061 163.624 244.231 164.705 244.231 165.977V166.945H233.083V164.9H241.556C241.556 164.181 241.41 163.545 241.118 162.991C240.825 162.431 240.415 161.99 239.885 161.667C239.361 161.345 238.747 161.184 238.041 161.184C237.274 161.184 236.604 161.372 236.032 161.75C235.466 162.121 235.028 162.608 234.717 163.211C234.413 163.807 234.261 164.455 234.261 165.155V166.753C234.261 167.69 234.425 168.488 234.754 169.145C235.088 169.803 235.554 170.305 236.151 170.652C236.747 170.993 237.444 171.163 238.241 171.163C238.759 171.163 239.231 171.09 239.657 170.944C240.083 170.792 240.451 170.567 240.761 170.268C241.072 169.97 241.309 169.602 241.474 169.164L244.058 169.629C243.851 170.39 243.479 171.057 242.944 171.629C242.414 172.195 241.748 172.636 240.944 172.953C240.147 173.263 239.237 173.418 238.214 173.418ZM254.284 173.135V154.436H257.014V161.384H257.178C257.336 161.092 257.564 160.754 257.863 160.371C258.161 159.987 258.575 159.653 259.104 159.367C259.634 159.074 260.334 158.928 261.204 158.928C262.337 158.928 263.347 159.214 264.236 159.787C265.124 160.359 265.821 161.184 266.327 162.261C266.838 163.338 267.094 164.635 267.094 166.15C267.094 167.666 266.841 168.966 266.336 170.049C265.831 171.127 265.137 171.957 264.254 172.542C263.371 173.12 262.364 173.409 261.232 173.409C260.38 173.409 259.683 173.266 259.141 172.98C258.605 172.694 258.185 172.359 257.881 171.976C257.577 171.592 257.342 171.251 257.178 170.953H256.95V173.135H254.284ZM256.959 166.123C256.959 167.109 257.102 167.974 257.388 168.716C257.674 169.459 258.088 170.04 258.63 170.46C259.171 170.874 259.835 171.081 260.62 171.081C261.436 171.081 262.117 170.865 262.665 170.433C263.213 169.994 263.627 169.401 263.907 168.652C264.193 167.904 264.336 167.06 264.336 166.123C264.336 165.198 264.196 164.367 263.916 163.631C263.642 162.894 263.228 162.313 262.674 161.887C262.127 161.461 261.442 161.247 260.62 161.247C259.829 161.247 259.159 161.451 258.611 161.859C258.07 162.267 257.659 162.836 257.379 163.567C257.099 164.297 256.959 165.149 256.959 166.123ZM276.203 173.418C274.822 173.418 273.632 173.123 272.633 172.533C271.641 171.936 270.874 171.099 270.333 170.022C269.797 168.938 269.529 167.669 269.529 166.214C269.529 164.778 269.797 163.512 270.333 162.416C270.874 161.321 271.629 160.465 272.597 159.851C273.571 159.236 274.709 158.928 276.012 158.928C276.803 158.928 277.57 159.059 278.313 159.321C279.055 159.583 279.722 159.994 280.312 160.554C280.903 161.114 281.368 161.841 281.709 162.736C282.05 163.624 282.22 164.705 282.22 165.977V166.945H271.072V164.9H279.545C279.545 164.181 279.399 163.545 279.107 162.991C278.815 162.431 278.404 161.99 277.874 161.667C277.351 161.345 276.736 161.184 276.03 161.184C275.263 161.184 274.593 161.372 274.021 161.75C273.455 162.121 273.017 162.608 272.706 163.211C272.402 163.807 272.25 164.455 272.25 165.155V166.753C272.25 167.69 272.414 168.488 272.743 169.145C273.078 169.803 273.543 170.305 274.14 170.652C274.736 170.993 275.433 171.163 276.231 171.163C276.748 171.163 277.22 171.09 277.646 170.944C278.072 170.792 278.44 170.567 278.751 170.268C279.061 169.97 279.299 169.602 279.463 169.164L282.047 169.629C281.84 170.39 281.469 171.057 280.933 171.629C280.403 172.195 279.737 172.636 278.933 172.953C278.136 173.263 277.226 173.418 276.203 173.418ZM295.758 162.535L293.284 162.973C293.181 162.657 293.016 162.355 292.791 162.069C292.572 161.783 292.274 161.549 291.896 161.366C291.519 161.184 291.047 161.092 290.481 161.092C289.708 161.092 289.063 161.266 288.545 161.613C288.028 161.954 287.769 162.395 287.769 162.937C287.769 163.405 287.943 163.783 288.29 164.069C288.637 164.355 289.197 164.589 289.97 164.772L292.198 165.283C293.488 165.581 294.45 166.041 295.083 166.662C295.716 167.283 296.032 168.089 296.032 169.081C296.032 169.921 295.789 170.67 295.302 171.327C294.821 171.979 294.148 172.49 293.284 172.861C292.426 173.233 291.431 173.418 290.298 173.418C288.728 173.418 287.447 173.084 286.455 172.414C285.462 171.738 284.854 170.78 284.628 169.538L287.267 169.136C287.432 169.824 287.769 170.344 288.281 170.697C288.792 171.044 289.458 171.218 290.28 171.218C291.175 171.218 291.89 171.032 292.426 170.661C292.961 170.284 293.229 169.824 293.229 169.282C293.229 168.844 293.065 168.476 292.736 168.177C292.414 167.879 291.918 167.654 291.248 167.502L288.874 166.981C287.565 166.683 286.598 166.208 285.971 165.557C285.35 164.906 285.039 164.081 285.039 163.083C285.039 162.255 285.271 161.531 285.733 160.91C286.196 160.289 286.835 159.805 287.651 159.458C288.466 159.105 289.401 158.928 290.454 158.928C291.969 158.928 293.162 159.257 294.033 159.914C294.903 160.566 295.478 161.439 295.758 162.535ZM305.58 159.111V161.302H297.92V159.111H305.58ZM299.974 155.751H302.704V169.017C302.704 169.547 302.784 169.946 302.942 170.214C303.1 170.475 303.304 170.655 303.554 170.752C303.809 170.844 304.086 170.889 304.384 170.889C304.604 170.889 304.795 170.874 304.96 170.844C305.124 170.813 305.252 170.789 305.343 170.77L305.836 173.026C305.678 173.087 305.453 173.147 305.16 173.208C304.868 173.275 304.503 173.312 304.065 173.318C303.347 173.33 302.677 173.202 302.056 172.934C301.435 172.667 300.933 172.253 300.55 171.693C300.166 171.133 299.974 170.43 299.974 169.584V155.751ZM325.914 162.535L323.44 162.973C323.336 162.657 323.172 162.355 322.946 162.069C322.727 161.783 322.429 161.549 322.052 161.366C321.674 161.184 321.203 161.092 320.636 161.092C319.863 161.092 319.218 161.266 318.701 161.613C318.183 161.954 317.925 162.395 317.925 162.937C317.925 163.405 318.098 163.783 318.445 164.069C318.792 164.355 319.352 164.589 320.125 164.772L322.353 165.283C323.643 165.581 324.605 166.041 325.238 166.662C325.871 167.283 326.188 168.089 326.188 169.081C326.188 169.921 325.944 170.67 325.457 171.327C324.976 171.979 324.304 172.49 323.44 172.861C322.581 173.233 321.586 173.418 320.454 173.418C318.883 173.418 317.602 173.084 316.61 172.414C315.618 171.738 315.009 170.78 314.784 169.538L317.423 169.136C317.587 169.824 317.925 170.344 318.436 170.697C318.947 171.044 319.614 171.218 320.436 171.218C321.33 171.218 322.046 171.032 322.581 170.661C323.117 170.284 323.385 169.824 323.385 169.282C323.385 168.844 323.22 168.476 322.892 168.177C322.569 167.879 322.073 167.654 321.403 167.502L319.03 166.981C317.721 166.683 316.753 166.208 316.126 165.557C315.505 164.906 315.195 164.081 315.195 163.083C315.195 162.255 315.426 161.531 315.889 160.91C316.351 160.289 316.99 159.805 317.806 159.458C318.622 159.105 319.556 158.928 320.609 158.928C322.125 158.928 323.318 159.257 324.188 159.914C325.059 160.566 325.634 161.439 325.914 162.535ZM335.234 173.418C333.852 173.418 332.662 173.123 331.664 172.533C330.672 171.936 329.905 171.099 329.363 170.022C328.827 168.938 328.559 167.669 328.559 166.214C328.559 164.778 328.827 163.512 329.363 162.416C329.905 161.321 330.659 160.465 331.627 159.851C332.601 159.236 333.739 158.928 335.042 158.928C335.833 158.928 336.6 159.059 337.343 159.321C338.085 159.583 338.752 159.994 339.342 160.554C339.933 161.114 340.398 161.841 340.739 162.736C341.08 163.624 341.251 164.705 341.251 165.977V166.945H330.102V164.9H338.575C338.575 164.181 338.429 163.545 338.137 162.991C337.845 162.431 337.434 161.99 336.905 161.667C336.381 161.345 335.766 161.184 335.06 161.184C334.293 161.184 333.624 161.372 333.052 161.75C332.485 162.121 332.047 162.608 331.737 163.211C331.432 163.807 331.28 164.455 331.28 165.155V166.753C331.28 167.69 331.445 168.488 331.773 169.145C332.108 169.803 332.574 170.305 333.17 170.652C333.767 170.993 334.464 171.163 335.261 171.163C335.778 171.163 336.25 171.09 336.676 170.944C337.102 170.792 337.471 170.567 337.781 170.268C338.092 169.97 338.329 169.602 338.493 169.164L341.077 169.629C340.87 170.39 340.499 171.057 339.963 171.629C339.434 172.195 338.767 172.636 337.964 172.953C337.166 173.263 336.256 173.418 335.234 173.418ZM344.28 173.135V159.111H346.918V161.339H347.064C347.32 160.584 347.771 159.991 348.416 159.558C349.067 159.12 349.804 158.901 350.625 158.901C350.796 158.901 350.997 158.907 351.228 158.919C351.465 158.931 351.651 158.947 351.785 158.965V161.576C351.675 161.546 351.48 161.512 351.2 161.476C350.92 161.433 350.64 161.412 350.36 161.412C349.715 161.412 349.14 161.549 348.635 161.823C348.136 162.091 347.74 162.465 347.448 162.946C347.156 163.421 347.01 163.962 347.01 164.571V173.135H344.28ZM366.572 159.111L361.486 173.135H358.564L353.469 159.111H356.4L359.952 169.903H360.098L363.641 159.111H366.572ZM369.137 173.135V159.111H371.867V173.135H369.137ZM370.516 156.947C370.041 156.947 369.633 156.789 369.292 156.472C368.958 156.15 368.79 155.766 368.79 155.322C368.79 154.871 368.958 154.488 369.292 154.171C369.633 153.849 370.041 153.688 370.516 153.688C370.991 153.688 371.395 153.849 371.73 154.171C372.071 154.488 372.242 154.871 372.242 155.322C372.242 155.766 372.071 156.15 371.73 156.472C371.395 156.789 370.991 156.947 370.516 156.947ZM381.447 173.418C380.09 173.418 378.921 173.111 377.941 172.496C376.967 171.875 376.219 171.02 375.695 169.93C375.172 168.841 374.91 167.593 374.91 166.187C374.91 164.763 375.178 163.506 375.713 162.416C376.249 161.321 377.004 160.465 377.978 159.851C378.952 159.236 380.099 158.928 381.42 158.928C382.485 158.928 383.435 159.126 384.269 159.522C385.102 159.911 385.775 160.459 386.286 161.165C386.804 161.871 387.111 162.696 387.209 163.64H384.552C384.405 162.982 384.071 162.416 383.547 161.941C383.03 161.467 382.336 161.229 381.465 161.229C380.705 161.229 380.038 161.43 379.466 161.832C378.9 162.227 378.459 162.794 378.142 163.53C377.826 164.261 377.667 165.125 377.667 166.123C377.667 167.146 377.822 168.028 378.133 168.771C378.443 169.514 378.882 170.089 379.448 170.497C380.02 170.904 380.692 171.108 381.465 171.108C381.983 171.108 382.452 171.014 382.872 170.825C383.298 170.63 383.654 170.354 383.94 169.994C384.232 169.635 384.436 169.203 384.552 168.698H387.209C387.111 169.605 386.816 170.414 386.323 171.127C385.83 171.839 385.169 172.399 384.342 172.807C383.52 173.214 382.555 173.418 381.447 173.418ZM396.172 173.418C394.791 173.418 393.601 173.123 392.602 172.533C391.61 171.936 390.843 171.099 390.301 170.022C389.766 168.938 389.498 167.669 389.498 166.214C389.498 164.778 389.766 163.512 390.301 162.416C390.843 161.321 391.598 160.465 392.566 159.851C393.54 159.236 394.678 158.928 395.981 158.928C396.772 158.928 397.539 159.059 398.281 159.321C399.024 159.583 399.691 159.994 400.281 160.554C400.871 161.114 401.337 161.841 401.678 162.736C402.019 163.624 402.189 164.705 402.189 165.977V166.945H391.041V164.9H399.514C399.514 164.181 399.368 163.545 399.076 162.991C398.784 162.431 398.373 161.99 397.843 161.667C397.32 161.345 396.705 161.184 395.999 161.184C395.232 161.184 394.562 161.372 393.99 161.75C393.424 162.121 392.986 162.608 392.675 163.211C392.371 163.807 392.219 164.455 392.219 165.155V166.753C392.219 167.69 392.383 168.488 392.712 169.145C393.047 169.803 393.512 170.305 394.109 170.652C394.705 170.993 395.402 171.163 396.2 171.163C396.717 171.163 397.189 171.09 397.615 170.944C398.041 170.792 398.409 170.567 398.72 170.268C399.03 169.97 399.267 169.602 399.432 169.164L402.016 169.629C401.809 170.39 401.437 171.057 400.902 171.629C400.372 172.195 399.706 172.636 398.902 172.953C398.105 173.263 397.195 173.418 396.172 173.418ZM418.697 159.111V161.302H410.772V159.111H418.697ZM412.945 173.135V157.486C412.945 156.609 413.137 155.882 413.52 155.304C413.904 154.719 414.412 154.284 415.045 153.998C415.678 153.706 416.366 153.56 417.108 153.56C417.656 153.56 418.125 153.605 418.514 153.697C418.904 153.782 419.193 153.861 419.382 153.934L418.743 156.144C418.615 156.107 418.45 156.064 418.25 156.016C418.049 155.961 417.805 155.934 417.519 155.934C416.856 155.934 416.381 156.098 416.095 156.427C415.815 156.755 415.675 157.23 415.675 157.851V173.135H412.945ZM426.869 173.418C425.554 173.418 424.407 173.117 423.427 172.514C422.447 171.912 421.686 171.069 421.144 169.985C420.602 168.902 420.331 167.636 420.331 166.187C420.331 164.732 420.602 163.46 421.144 162.371C421.686 161.281 422.447 160.435 423.427 159.832C424.407 159.23 425.554 158.928 426.869 158.928C428.183 158.928 429.331 159.23 430.311 159.832C431.291 160.435 432.052 161.281 432.593 162.371C433.135 163.46 433.406 164.732 433.406 166.187C433.406 167.636 433.135 168.902 432.593 169.985C432.052 171.069 431.291 171.912 430.311 172.514C429.331 173.117 428.183 173.418 426.869 173.418ZM426.878 171.127C427.73 171.127 428.436 170.901 428.996 170.451C429.556 170 429.97 169.401 430.238 168.652C430.512 167.904 430.649 167.079 430.649 166.178C430.649 165.283 430.512 164.461 430.238 163.713C429.97 162.958 429.556 162.352 428.996 161.896C428.436 161.439 427.73 161.211 426.878 161.211C426.02 161.211 425.307 161.439 424.741 161.896C424.181 162.352 423.764 162.958 423.49 163.713C423.223 164.461 423.089 165.283 423.089 166.178C423.089 167.079 423.223 167.904 423.49 168.652C423.764 169.401 424.181 170 424.741 170.451C425.307 170.901 426.02 171.127 426.878 171.127ZM436.453 173.135V159.111H439.092V161.339H439.238C439.494 160.584 439.944 159.991 440.589 159.558C441.241 159.12 441.977 158.901 442.799 158.901C442.969 158.901 443.17 158.907 443.402 158.919C443.639 158.931 443.825 158.947 443.959 158.965V161.576C443.849 161.546 443.654 161.512 443.374 161.476C443.094 161.433 442.814 161.412 442.534 161.412C441.889 161.412 441.314 161.549 440.809 161.823C440.309 162.091 439.914 162.465 439.622 162.946C439.329 163.421 439.183 163.962 439.183 164.571V173.135H436.453ZM459.005 178.687C457.891 178.687 456.933 178.54 456.129 178.248C455.332 177.956 454.681 177.57 454.175 177.089C453.67 176.608 453.293 176.081 453.043 175.509L455.39 174.541C455.554 174.809 455.773 175.092 456.047 175.39C456.327 175.695 456.705 175.954 457.179 176.167C457.66 176.38 458.278 176.486 459.033 176.486C460.068 176.486 460.923 176.234 461.598 175.728C462.274 175.229 462.612 174.432 462.612 173.336V170.579H462.438C462.274 170.877 462.037 171.209 461.726 171.574C461.422 171.939 461.002 172.256 460.466 172.524C459.931 172.791 459.234 172.925 458.375 172.925C457.268 172.925 456.269 172.667 455.381 172.149C454.498 171.626 453.798 170.856 453.281 169.839C452.769 168.817 452.514 167.56 452.514 166.068C452.514 164.577 452.766 163.299 453.272 162.234C453.783 161.168 454.483 160.353 455.371 159.787C456.26 159.214 457.268 158.928 458.394 158.928C459.264 158.928 459.967 159.074 460.503 159.367C461.038 159.653 461.455 159.987 461.754 160.371C462.058 160.754 462.292 161.092 462.457 161.384H462.658V159.111H465.333V173.446C465.333 174.651 465.053 175.64 464.493 176.413C463.933 177.186 463.175 177.758 462.219 178.13C461.27 178.501 460.198 178.687 459.005 178.687ZM458.978 170.661C459.763 170.661 460.427 170.478 460.968 170.113C461.516 169.742 461.93 169.212 462.21 168.524C462.496 167.83 462.639 167 462.639 166.032C462.639 165.088 462.499 164.257 462.219 163.539C461.939 162.821 461.528 162.261 460.987 161.859C460.445 161.451 459.775 161.247 458.978 161.247C458.156 161.247 457.471 161.461 456.924 161.887C456.376 162.307 455.962 162.879 455.682 163.603C455.408 164.327 455.271 165.137 455.271 166.032C455.271 166.951 455.411 167.757 455.691 168.451C455.971 169.145 456.385 169.687 456.933 170.077C457.487 170.466 458.168 170.661 458.978 170.661ZM468.994 173.135V159.111H471.633V161.339H471.779C472.034 160.584 472.485 159.991 473.13 159.558C473.781 159.12 474.518 158.901 475.34 158.901C475.51 158.901 475.711 158.907 475.942 158.919C476.18 158.931 476.365 158.947 476.499 158.965V161.576C476.39 161.546 476.195 161.512 475.915 161.476C475.635 161.433 475.355 161.412 475.075 161.412C474.43 161.412 473.854 161.549 473.349 161.823C472.85 162.091 472.454 162.465 472.162 162.946C471.87 163.421 471.724 163.962 471.724 164.571V173.135H468.994ZM484.267 173.418C482.952 173.418 481.805 173.117 480.825 172.514C479.845 171.912 479.084 171.069 478.542 169.985C478 168.902 477.73 167.636 477.73 166.187C477.73 164.732 478 163.46 478.542 162.371C479.084 161.281 479.845 160.435 480.825 159.832C481.805 159.23 482.952 158.928 484.267 158.928C485.582 158.928 486.729 159.23 487.709 159.832C488.689 160.435 489.45 161.281 489.992 162.371C490.533 163.46 490.804 164.732 490.804 166.187C490.804 167.636 490.533 168.902 489.992 169.985C489.45 171.069 488.689 171.912 487.709 172.514C486.729 173.117 485.582 173.418 484.267 173.418ZM484.276 171.127C485.128 171.127 485.834 170.901 486.394 170.451C486.954 170 487.368 169.401 487.636 168.652C487.91 167.904 488.047 167.079 488.047 166.178C488.047 165.283 487.91 164.461 487.636 163.713C487.368 162.958 486.954 162.352 486.394 161.896C485.834 161.439 485.128 161.211 484.276 161.211C483.418 161.211 482.706 161.439 482.14 161.896C481.58 162.352 481.163 162.958 480.889 163.713C480.621 164.461 480.487 165.283 480.487 166.178C480.487 167.079 480.621 167.904 480.889 168.652C481.163 169.401 481.58 170 482.14 170.451C482.706 170.901 483.418 171.127 484.276 171.127ZM496.465 173.135L492.338 159.111H495.159L497.908 169.41H498.045L500.802 159.111H503.623L506.362 169.364H506.499L509.229 159.111H512.051L507.933 173.135H505.148L502.299 163.01H502.089L499.241 173.135H496.465ZM521.188 159.111V161.302H513.528V159.111H521.188ZM515.582 155.751H518.312V169.017C518.312 169.547 518.391 169.946 518.549 170.214C518.708 170.475 518.911 170.655 519.161 170.752C519.417 170.844 519.694 170.889 519.992 170.889C520.211 170.889 520.403 170.874 520.567 170.844C520.731 170.813 520.859 170.789 520.951 170.77L521.444 173.026C521.285 173.087 521.06 173.147 520.768 173.208C520.476 173.275 520.111 173.312 519.672 173.318C518.954 173.33 518.285 173.202 517.664 172.934C517.043 172.667 516.541 172.253 516.157 171.693C515.774 171.133 515.582 170.43 515.582 169.584V155.751ZM527.239 164.808V173.135H524.509V154.436H527.203V161.394H527.376C527.705 160.639 528.207 160.039 528.883 159.595C529.558 159.151 530.441 158.928 531.53 158.928C532.492 158.928 533.332 159.126 534.05 159.522C534.775 159.917 535.335 160.508 535.73 161.293C536.132 162.072 536.333 163.046 536.333 164.215V173.135H533.603V164.544C533.603 163.515 533.338 162.717 532.809 162.151C532.279 161.579 531.543 161.293 530.599 161.293C529.954 161.293 529.376 161.43 528.864 161.704C528.359 161.978 527.96 162.38 527.668 162.909C527.382 163.433 527.239 164.066 527.239 164.808Z" fill="#7664FA"></path><path d="M197.6 103.1C197.6 86.3 210.2 73.6 227 73.6C236.2 73.6 243.7 77.4 248.6 83.4C249.3 84.3 249.3 85.1 248.6 85.8L243.4 90.8C242.5 91.7 241.3 91.5 240.6 90.7C237.3 87.4 233.5 85.2 227.6 85.2C217 85.2 209.6 92.8 209.6 103.2C209.6 113.6 217 121.4 227.8 121.4C233.6 121.4 237.4 119.2 240.6 115.9C241.4 115.1 242.6 114.9 243.5 115.8L248.7 120.8C249.4 121.5 249.4 122.3 248.7 123.2C243.9 129.2 236.4 133 227.3 133C210.2 132.8 197.6 120 197.6 103.1Z" fill="#7664FA"></path><path d="M254.1 102.9C254.1 86.3 265.6 73.5 282.8 73.5C299.7 73.5 309.5 86.3 309.5 100.4C309.5 105.4 308.5 107.8 304.2 107.8H266.2C267.7 116.8 274.4 122.8 285.6 122.8C291.1 122.8 295.6 121.4 300.1 118.4C300.8 117.9 301.5 118.1 301.9 118.7L305.1 123.1C305.8 124 305.6 124.7 304.6 125.6C299.6 130.4 292.4 132.7 284.4 132.7C266.1 132.8 254.1 119.8 254.1 102.9ZM298.5 98.8C297.8 89.6 291.7 84 282.8 84C273.9 84 267.4 89.4 266.1 98.8H298.5Z" fill="#7664FA"></path><path d="M317.5 129.7V50.7C317.5 49.7 318.1 49 319.1 49H328.3C329.3 49 329.9 49.7 329.9 50.7V129.6C329.9 130.6 329.3 131.3 328.3 131.3H319.1C318.1 131.4 317.5 130.7 317.5 129.7Z" fill="#7664FA"></path><path d="M337.9 103.1C337.9 86.3 350.5 73.6 367.3 73.6C376.5 73.6 384 77.4 388.9 83.4C389.6 84.3 389.6 85.1 388.9 85.8L383.7 90.8C382.8 91.7 381.6 91.5 380.9 90.7C377.6 87.4 373.8 85.2 367.9 85.2C357.3 85.2 349.9 92.8 349.9 103.2C349.9 113.6 357.3 121.4 368.1 121.4C373.9 121.4 377.7 119.2 380.9 115.9C381.7 115.1 382.9 114.9 383.8 115.8L389 120.8C389.7 121.5 389.7 122.3 389 123.2C384.2 129.2 376.7 133 367.6 133C350.6 132.8 337.9 120 337.9 103.1Z" fill="#7664FA"></path><path d="M392.2 103.2C392.2 86.5 404.6 73.6 421.5 73.6C438.2 73.6 450.7 86.5 450.7 103.2C450.7 119.9 438.3 132.8 421.5 132.8C404.6 132.8 392.2 119.9 392.2 103.2ZM421.5 121.3C431.2 121.3 438.7 114 438.7 103.2C438.7 92.4 431.2 85.1 421.5 85.1C411.7 85.1 404.2 92.4 404.2 103.2C404.2 114 411.7 121.3 421.5 121.3Z" fill="#7664FA"></path><path d="M457.7 55.6C457.7 51.7 460.8 48.5 465 48.5C469 48.5 472.1 51.7 472.1 55.6C472.1 59.6 469 62.9 465 62.9C460.8 62.8 457.7 59.6 457.7 55.6ZM458.6 76.7C458.6 75.7 459.2 75 460.2 75H469.5C470.5 75 471.1 75.7 471.1 76.7V129.7C471.1 130.7 470.5 131.4 469.5 131.4H460.2C459.2 131.4 458.6 130.7 458.6 129.7V76.7Z" fill="#7664FA"></path><path d="M484.3 129.7V76.7C484.3 75.7 484.9 75 485.9 75H494.7C495.7 75 496.3 75.5 496.3 76.8L496.8 83.7C500 77.9 505.7 73.6 514.5 73.6C526.5 73.6 535 81.9 535 96.8V129.8C535 130.8 534.3 131.5 533.3 131.5H524.2C523.2 131.5 522.6 130.8 522.6 129.8V99C522.6 90.1 518.2 85.1 510.3 85.1C502.3 85.1 496.8 90.2 496.8 99V129.7C496.8 130.7 496.2 131.4 495.2 131.4H486C484.9 131.4 484.3 130.7 484.3 129.7Z" fill="#7664FA"></path><path d="M171 103.4C171 73.7 153.1 47.4 125.9 36.3C125 32.7 121.7 30 117.8 30C113.2 30 109.4 33.8 109.4 38.4C109.4 43 113.2 46.8 117.8 46.8C119.1 46.8 120.3 46.5 121.4 45.9C144.9 55.3 160.4 77.9 160.4 103.4C160.4 135.9 135.1 162.5 103.1 165.2V153C119.2 151.2 133.4 141.7 141.3 127.5C145.5 127.1 148.8 123.5 148.8 119.2C148.8 114.6 145 110.8 140.4 110.8C135.8 110.8 132 114.6 132 119.2C132 120 132.2 120.8 132.4 121.5C125.7 134.5 112.4 142.7 97.6 142.7C75.9 142.7 58.3 125.1 58.3 103.4C58.3 81.7 75.9 64.1 97.6 64.1C112.5 64.1 125.8 72.5 132.5 85.6C132.2 86.5 132 87.4 132 88.3C132 92.9 135.8 96.7 140.4 96.7C145 96.7 148.8 92.9 148.8 88.3C148.8 84.1 145.7 80.6 141.7 80C134 65.4 119.5 55.6 103.2 53.8V36.6V36.5C103.2 36.4 103.3 36.3 103.3 36.1C103.3 33.2 100.9 30.8 98 30.8C57.7 30.8 24.9 63.4 24.9 103.4C24.9 133 42.8 159.3 70 170.5C70.9 174.1 74.2 176.8 78.1 176.8C82.7 176.8 86.5 173 86.5 168.4C86.5 163.8 82.7 160 78.1 160C76.8 160 75.6 160.3 74.5 160.9C51 151.5 35.5 128.9 35.5 103.4C35.5 71 60.7 44.3 92.7 41.6V53.7C67.5 56.2 47.8 77.5 47.8 103.4C47.8 129.3 67.5 150.5 92.7 153.1V170.9C92.7 173.8 95.1 176.2 98 176.2C98.3 176.2 98.5 176.1 98.7 176.1C138.6 175.7 171 143.3 171 103.4Z" fill="#7664FA"></path></svg>